<svg id="Capa_1" enable-background="new 0 0 512 512" height="512" viewBox="0 0 512 512" width="512" xmlns="http://www.w3.org/2000/svg"><path d="m256 27.803h-113l-1 .712h-28l-1-.712h-67.916c-24.859 0-45.084 20.225-45.084 45.084v64.881l.802 1v28.281l-.802 1v271.063c0 24.859 20.225 45.084 45.084 45.084h210.916l6.356-9.193v-437.291z" fill="#406bd4"/><path d="m466.916 27.803h-210.916v456.394h210.916c24.859 0 45.084-20.225 45.084-45.084v-35.368l-1-2.325v-26.195l1-1.48v-56.802l-.699-1.751v-26.767l.699-1.482v-61.885l-.828-1.413v-27.175l.828-1.412v-57.289l-1.299-1.589.299-26.469 1-1.456v-35.368c0-24.859-20.225-45.084-45.084-45.084z" fill="#3257b0"/><path d="m0 373.745h512v30h-512z" fill="#f0f9ff"/><path d="m0 286.942h512v30h-512z" fill="#f0f9ff"/><g fill="#cee5f5"><path d="m256 373.745h256v30h-256z"/><path d="m256 286.942h256v30h-256z"/><path d="m256 195.058h256v30h-256z"/><path d="m256 108.255h256v29.513h-256z"/></g><path d="m143 137.768v-109.965h-30v109.965h-113v30.282h113v119.892h30v-119.892h113v-30.282z" fill="#f0f9ff"/></svg>