<svg id="Capa_1" enable-background="new 0 0 512 512" height="512" viewBox="0 0 512 512" width="512" xmlns="http://www.w3.org/2000/svg"><path d="m466.916 27.803h-421.832c-24.859 0-45.084 20.225-45.084 45.084v366.226c0 24.859 20.225 45.084 45.084 45.084h421.832c24.859 0 45.084-20.225 45.084-45.084v-366.226c0-24.859-20.225-45.084-45.084-45.084z" fill="#f40055"/><path d="m466.916 27.803h-210.916v456.394h210.916c24.859 0 45.084-20.225 45.084-45.084v-366.226c0-24.859-20.225-45.084-45.084-45.084z" fill="#c20044"/><path d="m410.685 209.78c-2.025-6.153-7.771-10.311-14.249-10.311h-94.148l-32.126-91.979c-2.103-6.021-7.783-10.054-14.161-10.054s-12.058 4.033-14.161 10.054l-32.126 91.979h-94.148c-6.478 0-12.224 4.158-14.249 10.311-2.024 6.153.129 12.911 5.341 16.758l74.417 54.925-36.03 103.153c-2.169 6.212-.038 13.112 5.257 17.018s12.517 3.905 17.812-.003l87.886-64.867 87.887 64.867c2.648 1.954 5.777 2.931 8.908 2.931 3.128 0 6.257-.977 8.904-2.928 5.295-3.906 7.427-10.806 5.257-17.018l-36.03-103.153 74.417-54.925c5.213-3.847 7.366-10.604 5.342-16.758zm-154.685-51.854 14.51 41.543h-29.02zm-94.854 71.543h38.087l-7.806 22.35zm28.24 119.175 16.952-48.534 24.403 18.011zm27.306-78.178 14.319-40.997h49.978l14.319 40.997-39.308 29.012zm64.567 47.655 24.403-18.011 16.952 48.534zm39.313-66.302-7.806-22.35h38.087z" fill="#39b44a"/><path d="m410.685 209.78c-2.025-6.153-7.771-10.311-14.249-10.311h-94.148l-32.126-91.979c-2.103-6.021-7.783-10.054-14.161-10.054v60.49l14.51 41.543h-14.511v30h24.989l14.319 40.997-39.308 29.012v37.286l87.887 64.867c2.648 1.954 5.777 2.931 8.908 2.931 3.128 0 6.257-.977 8.904-2.928 5.295-3.906 7.427-10.806 5.257-17.018l-36.03-103.153 74.417-54.925c5.213-3.847 7.366-10.604 5.342-16.758zm-129.426 108.341 24.403-18.011 16.952 48.534zm39.313-66.302-7.806-22.35h38.087z" fill="#2f963e"/></svg>