<svg id="Capa_1" enable-background="new 0 0 512 512" height="512" viewBox="0 0 512 512" width="512" xmlns="http://www.w3.org/2000/svg"><path d="m466.916 27.803h-275.217l-1.648 1.281h-26.466l-1.886-1.281h-116.615c-24.859 0-45.084 20.225-45.084 45.084v137.576l1.169 1.835v26.17l-1.169 1.995v198.65c0 24.859 20.225 45.084 45.084 45.084h116.615l2.46-1.447h25.282l2.258 1.447h275.217c24.859 0 45.084-20.225 45.084-45.084v-198.65l-1.206-1.424v-27.196l1.206-1.38v-137.576c0-24.859-20.225-45.084-45.084-45.084z" fill="#f40055"/><path d="m512 210.463v-137.576c0-24.859-20.225-45.084-45.084-45.084h-210.916v456.394h210.916c24.859 0 45.084-20.225 45.084-45.084v-198.65l-1.206-1.424v-27.196z" fill="#c20044"/><path d="m191.699 210.463v-182.66h-30v182.66h-161.699v30h161.699v243.734h30v-243.734h320.301v-30z" fill="#f0f9ff"/><path d="m256 210.463h256v30h-256z" fill="#cee5f5"/></svg>