<svg id="Capa_1" enable-background="new 0 0 512 512" height="512" viewBox="0 0 512 512" width="512" xmlns="http://www.w3.org/2000/svg"><path d="m466.916 27.803h-421.832c-24.859 0-45.084 20.225-45.084 45.084v366.226c0 24.859 20.225 45.084 45.084 45.084h421.832c24.859 0 45.084-20.225 45.084-45.084v-366.226c0-24.859-20.225-45.084-45.084-45.084z" fill="#f40055"/><path d="m466.916 27.803h-210.916v456.394h210.916c24.859 0 45.084-20.225 45.084-45.084v-366.226c0-24.859-20.225-45.084-45.084-45.084z" fill="#c20044"/><path d="m338.491 220.474h-46.965v-46.964c0-8.284-6.716-15-15-15h-41.052c-8.284 0-15 6.716-15 15v46.964h-46.965c-8.284 0-15 6.716-15 15v41.053c0 8.284 6.716 15 15 15h46.965v46.964c0 8.284 6.716 15 15 15h41.052c8.284 0 15-6.716 15-15v-46.964h46.965c8.284 0 15-6.716 15-15v-41.053c0-8.285-6.716-15-15-15z" fill="#f0f9ff"/><path d="m338.491 220.474h-46.964v-46.964c0-8.284-6.716-15-15-15h-20.527v194.982h20.526c8.284 0 15-6.716 15-15v-46.964h46.964c8.285 0 15-6.716 15-15v-41.053c.001-8.286-6.715-15.001-14.999-15.001z" fill="#cee5f5"/></svg>