<svg id="Capa_1" enable-background="new 0 0 512 512" height="512" viewBox="0 0 512 512" width="512" xmlns="http://www.w3.org/2000/svg"><path d="m466.916 27.803h-421.832c-24.859 0-45.084 20.225-45.084 45.084v366.226c0 24.859 20.225 45.084 45.084 45.084h421.832c24.859 0 45.084-20.225 45.084-45.084v-366.226c0-24.859-20.225-45.084-45.084-45.084z" fill="#f40055"/><path d="m466.916 27.803h-210.916v456.394h210.916c24.859 0 45.084-20.225 45.084-45.084v-366.226c0-24.859-20.225-45.084-45.084-45.084z" fill="#c20044"/><path d="m231.95 331.798c-42.469 0-76.781-34.928-75.776-77.625.961-40.843 34.748-73.879 75.602-73.971 2.49-.006 4.952.109 7.38.338 10.613 1.001 15.571-12.699 6.791-18.745-17.933-12.348-39.567-19.707-62.9-20.074-62.89-.988-115.237 49.758-116.112 112.65-.889 63.868 50.617 115.921 114.281 115.921 24.07 0 46.401-7.442 64.82-20.149 8.731-6.024 3.658-19.674-6.903-18.681-2.364.222-4.76.336-7.183.336z" fill="#fff"/><path d="m327.783 241h-.159v-.159c0-8.284-6.716-15-15-15s-15 6.716-15 15v.159h-.159c-8.284 0-15 6.716-15 15s6.716 15 15 15h.159v.158c0 8.284 6.716 15 15 15s15-6.716 15-15v-.158h.159c8.284 0 15-6.716 15-15s-6.716-15-15-15z" fill="#cee5f5"/></svg>