<svg id="Capa_1" enable-background="new 0 0 512 512" height="512" viewBox="0 0 512 512" width="512" xmlns="http://www.w3.org/2000/svg"><path d="m466.916 27.803h-421.832c-24.859 0-45.084 20.225-45.084 45.084v366.226c0 24.859 20.225 45.084 45.084 45.084h421.832c24.859 0 45.084-20.225 45.084-45.084v-366.226c0-24.859-20.225-45.084-45.084-45.084z" fill="#39b44a"/><path d="m466.916 27.803h-210.916v456.394h210.916c24.859 0 45.084-20.225 45.084-45.084v-366.226c0-24.859-20.225-45.084-45.084-45.084z" fill="#2f963e"/><path d="m382.642 311.835h-26.377v-3.21c0-8.284-6.716-15-15-15s-15 6.716-15 15v3.21h-196.907c-8.284 0-15 6.716-15 15s6.716 15 15 15h196.906v3.21c0 8.284 6.716 15 15 15s15-6.716 15-15v-3.21h26.377c8.284 0 15-6.716 15-15s-6.715-15-14.999-15z" fill="#f0f9ff"/><path d="m382.642 311.835h-26.377v-3.21c0-8.284-6.716-15-15-15s-15 6.716-15 15v3.21h-70.265v30h70.265v3.21c0 8.284 6.716 15 15 15s15-6.716 15-15v-3.21h26.377c8.284 0 15-6.716 15-15s-6.716-15-15-15z" fill="#cee5f5"/><path d="m172.88 280.558c19.729 0 35.78-16.051 35.78-35.779v-57.044c0-3.187 2.593-5.779 5.779-5.779 3.188 0 5.78 2.593 5.78 5.779v57.044c0 19.729 16.051 35.779 35.78 35.779s35.78-16.051 35.78-35.779c0-8.284-6.716-15-15-15s-15 6.716-15 15c0 3.187-2.593 5.779-5.78 5.779s-5.78-2.593-5.78-5.779v-57.044c0-19.729-16.051-35.779-35.78-35.779s-35.779 16.051-35.779 35.779v57.044c0 3.187-2.593 5.779-5.78 5.779s-5.78-2.593-5.78-5.779c0-8.284-6.716-15-15-15s-15 6.716-15 15c0 19.728 16.05 35.779 35.78 35.779z" fill="#f0f9ff"/><path d="m276.78 229.778c-8.284 0-15 6.716-15 15 0 3.187-2.593 5.779-5.78 5.779v30c19.729 0 35.78-16.051 35.78-35.779 0-8.284-6.716-15-15-15z" fill="#cee5f5"/><path d="m276.78 202.734c8.284 0 15-6.716 15-15 0-3.187 2.593-5.779 5.78-5.779s5.779 2.593 5.779 5.779v57.044c0 19.729 16.051 35.779 35.78 35.779s35.78-16.051 35.78-35.779v-77.823c0-8.284-6.716-15-15-15s-15 6.716-15 15v77.823c0 3.187-2.593 5.779-5.78 5.779s-5.78-2.593-5.78-5.779v-57.044c0-19.729-16.051-35.779-35.779-35.779-19.729 0-35.78 16.051-35.78 35.779 0 8.285 6.716 15 15 15z" fill="#cee5f5"/><path d="m152.1 217.082c8.284 0 15-6.716 15-15v-35.127c0-8.284-6.716-15-15-15s-15 6.716-15 15v35.127c0 8.284 6.715 15 15 15z" fill="#f0f9ff"/></svg>