<svg id="Capa_1" enable-background="new 0 0 512 512" height="512" viewBox="0 0 512 512" width="512" xmlns="http://www.w3.org/2000/svg"><path d="m0 361.232v77.88c0 24.859 20.225 45.084 45.084 45.084h421.832c24.859 0 45.084-20.225 45.084-45.084v-77.88z" fill="#39b44a"/><path d="m256 361.232v122.964h210.916c24.859 0 45.084-20.225 45.084-45.084v-77.88z" fill="#2f963e"/><path d="m512 150.526v-77.639c0-24.859-20.225-45.084-45.084-45.084h-421.832c-24.859 0-45.084 20.225-45.084 45.084v77.639z" fill="#f40055"/><path d="m512 150.526v-77.639c0-24.859-20.225-45.084-45.084-45.084h-210.916v122.723z" fill="#c20044"/><path d="m0 142.991h512v226.019h-512z" fill="#141a1a"/><path d="m256 142.991h256v226.019h-256z" fill="#040505"/><path d="m373.542 256c0-7.674-5.767-13.992-13.202-14.882-.89-7.435-7.208-13.202-14.882-13.202s-13.992 5.767-14.882 13.202c-7.435.89-13.202 7.208-13.202 14.882s5.767 13.992 13.202 14.882c.89 7.435 7.208 13.202 14.882 13.202s13.992-5.767 14.882-13.202c7.435-.89 13.202-7.208 13.202-14.882z" fill="#cee5f5"/><path d="m263.066 304.888c-27.646 0-49.932-22.947-48.85-50.833.984-25.365 21.67-45.992 47.038-46.909 5.05-.182 9.937.401 14.554 1.644 4.363 1.175 7.347-4.412 3.998-7.445-13.111-11.874-30.514-19.096-49.605-19.06-40.569.077-73.787 33.548-73.571 74.116.216 40.528 33.136 73.315 73.714 73.315 19.029 0 36.373-7.211 49.45-19.049 3.372-3.052.457-8.657-3.934-7.47-4.078 1.102-8.368 1.691-12.794 1.691z" fill="#f0f9ff"/><g fill="#cee5f5"><path d="m275.86 303.196c-4.078 1.103-8.367 1.691-12.794 1.691-2.399 0-4.758-.173-7.065-.507l.001 20.746c8.86-3.291 16.916-8.236 23.792-14.46 3.372-3.052.456-8.657-3.934-7.47z"/><path d="m279.806 201.345c-6.879-6.23-14.939-11.179-23.805-14.472l-.001 20.75c1.725-.252 3.478-.413 5.254-.477 5.05-.182 9.937.401 14.554 1.644 4.363 1.174 7.347-4.412 3.998-7.445z"/></g></svg>