<svg id="Capa_1" enable-background="new 0 0 512 512" height="512" viewBox="0 0 512 512" width="512" xmlns="http://www.w3.org/2000/svg"><path d="m256 27.803h-210.916c-24.859 0-45.084 20.225-45.084 45.084v366.226c0 24.859 20.225 45.084 45.084 45.084h210.916l6.599-7.686v-441.247z" fill="#4cc1ff"/><path d="m466.916 27.803h-210.916v456.394h210.916c24.859 0 45.084-20.225 45.084-45.084v-366.226c0-24.859-20.225-45.084-45.084-45.084z" fill="#40a0d4"/><path d="m373.293 218.233c-2.008-6.181-7.768-10.365-14.266-10.365h-67.807l-20.954-64.488c-2.008-6.181-7.768-10.365-14.266-10.365s-12.258 4.185-14.266 10.365l-20.954 64.488h-67.808c-6.498 0-12.258 4.185-14.266 10.365-2.009 6.18.191 12.95 5.449 16.771l54.857 39.855-20.953 64.489c-2.009 6.18.191 12.95 5.449 16.77 5.256 3.82 12.377 3.82 17.633 0l54.859-39.855 54.857 39.855c2.628 1.91 5.723 2.865 8.816 2.865s6.188-.955 8.816-2.865c5.258-3.819 7.458-10.59 5.449-16.77l-20.953-64.489 54.857-39.855c5.26-3.82 7.46-10.591 5.451-16.771z" fill="#f0f9ff"/><path d="m373.293 218.233c-2.008-6.181-7.768-10.365-14.266-10.365h-67.807l-20.954-64.488c-2.008-6.181-7.768-10.365-14.266-10.365v183.248l54.857 39.855c2.628 1.91 5.723 2.865 8.816 2.865s6.188-.955 8.816-2.865c5.258-3.819 7.458-10.59 5.449-16.77l-20.953-64.489 54.857-39.855c5.26-3.82 7.46-10.591 5.451-16.771z" fill="#cee5f5"/></svg>